<svg xmlns="http://www.w3.org/2000/svg" width="16" height="16" viewBox="0 0 16 16" fill="none">
  <path fill-rule="evenodd" clip-rule="evenodd" d="M15.3966 7.9971C15.3966 3.93437 12.1069 0.645752 8.00005 0.645752C3.93062 0.645752 0.64624 3.93437 0.64624 7.9971C0.64624 12.1079 3.93062 15.3912 8.00005 15.3912C12.1069 15.3912 15.3966 12.1079 15.3966 7.9971Z" fill="#EF7F1A"></path>
  <path fill-rule="evenodd" clip-rule="evenodd" d="M0 7.99733C0 3.58759 3.58879 0 8 0C12.4112 0 16 3.58759 16 7.99733C16 12.4071 12.4112 16 8 16C3.58879 16 0 12.4071 0 7.99733ZM1.03605 7.99733C1.03605 11.8465 4.14953 14.959 8 14.959C11.8451 14.959 14.964 11.8465 14.964 7.99733C14.964 4.1962 11.8451 1.0357 8 1.0357C4.14953 1.0357 1.03605 4.1962 1.03605 7.99733Z" fill="#EF7F1A"></path>
  <path fill-rule="evenodd" clip-rule="evenodd" d="M4.83838 10.8108L10.7663 7.99728L4.83838 5.23185V3.89185L12.1922 7.35131V8.69131L4.83838 12.1508V10.8108Z" fill="white"></path>
</svg>